<svg width="347" height="48" viewBox="0 0 347 48" fill="none" xmlns="http://www.w3.org/2000/svg">
<path d="M63.1963 38.9902C63.1963 40.25 63.0059 41.2412 62.625 41.9639C62.2539 42.6865 61.6826 43.2139 60.9111 43.5459C60.1396 43.8779 59.1533 44.0879 57.9521 44.1758C56.7607 44.2734 55.3398 44.3223 53.6895 44.3223C51.8047 44.3223 50.2031 44.2246 48.8848 44.0293C47.5762 43.8438 46.5166 43.458 45.7061 42.8721C44.9053 42.2764 44.3193 41.3877 43.9482 40.2061C43.5869 39.0244 43.4062 37.4473 43.4062 35.4746C43.4062 33.5605 43.582 32.0273 43.9336 30.875C44.2949 29.7227 44.876 28.8535 45.6768 28.2676C46.4775 27.6816 47.5273 27.291 48.8262 27.0957C50.1348 26.9004 51.7314 26.8027 53.6162 26.8027C55.7744 26.8027 57.5615 26.9541 58.9775 27.2568C60.3936 27.5596 61.4482 28.1357 62.1416 28.9854C62.8447 29.835 63.1963 31.0801 63.1963 32.7207V36.3389H46.2334C46.2432 37.5889 46.3311 38.5898 46.4971 39.3418C46.6631 40.0938 46.9951 40.6602 47.4932 41.041C47.9912 41.4219 48.7334 41.6758 49.7197 41.8027C50.7158 41.9199 52.0391 41.9785 53.6895 41.9785C55.1738 41.9785 56.3701 41.9492 57.2783 41.8906C58.1963 41.832 58.8896 41.7051 59.3584 41.5098C59.8369 41.3047 60.1592 41.002 60.3252 40.6016C60.4912 40.2012 60.5742 39.6641 60.5742 38.9902H63.1963ZM53.6162 29.1465C52.0244 29.1465 50.7402 29.2051 49.7637 29.3223C48.7969 29.4395 48.0596 29.6689 47.5518 30.0107C47.0439 30.3428 46.6973 30.8408 46.5117 31.5049C46.3359 32.1689 46.2432 33.043 46.2334 34.127H60.501V32.7207C60.501 32.0176 60.418 31.4365 60.252 30.9775C60.0957 30.5088 59.7832 30.1426 59.3145 29.8789C58.8457 29.6055 58.1523 29.415 57.2344 29.3076C56.3262 29.2002 55.1201 29.1465 53.6162 29.1465ZM77.2295 44.3223C75.4229 44.3223 73.8945 44.1855 72.6445 43.9121C71.4043 43.6387 70.4277 43.0234 69.7148 42.0664V44H66.9023V21.5H69.7148V29.0439C70.4277 28.0967 71.4043 27.4863 72.6445 27.2129C73.8945 26.9395 75.4229 26.8027 77.2295 26.8027C79.124 26.8027 80.7256 26.9004 82.0342 27.0957C83.3525 27.291 84.417 27.6816 85.2275 28.2676C86.0381 28.8535 86.6289 29.7227 87 30.875C87.3711 32.0273 87.5566 33.5605 87.5566 35.4746C87.5566 37.4473 87.3711 39.0244 87 40.2061C86.6289 41.3877 86.0381 42.2764 85.2275 42.8721C84.417 43.458 83.3525 43.8438 82.0342 44.0293C80.7256 44.2246 79.124 44.3223 77.2295 44.3223ZM84.7441 35.4746C84.7441 34.0781 84.6709 32.96 84.5244 32.1201C84.3877 31.2803 84.0801 30.6504 83.6016 30.2305C83.123 29.8008 82.376 29.5127 81.3604 29.3662C80.3545 29.2197 78.9775 29.1465 77.2295 29.1465C75.6377 29.1465 74.3486 29.2197 73.3623 29.3662C72.376 29.5127 71.6191 29.8008 71.0918 30.2305C70.5645 30.6504 70.2031 31.2803 70.0078 32.1201C69.8125 32.96 69.7148 34.0781 69.7148 35.4746C69.7148 36.9199 69.8125 38.0771 70.0078 38.9463C70.2031 39.8154 70.5645 40.4697 71.0918 40.9092C71.6191 41.3389 72.376 41.627 73.3623 41.7734C74.3486 41.9102 75.6377 41.9785 77.2295 41.9785C78.9775 41.9785 80.3545 41.9102 81.3604 41.7734C82.376 41.627 83.123 41.3389 83.6016 40.9092C84.0801 40.4697 84.3877 39.8154 84.5244 38.9463C84.6709 38.0771 84.7441 36.9199 84.7441 35.4746ZM99.5098 44.3223C97.3027 44.3223 95.5645 44.083 94.2949 43.6045C93.0254 43.1162 92.1221 42.3057 91.585 41.1729C91.0479 40.0303 90.7793 38.4727 90.7793 36.5V27.125H93.6064V36.5C93.6064 37.6133 93.6943 38.5312 93.8701 39.2539C94.0557 39.9668 94.3779 40.5234 94.8369 40.9238C95.2959 41.3145 95.9404 41.5879 96.7705 41.7441C97.6104 41.9004 98.6895 41.9785 100.008 41.9785C101.961 41.9785 103.494 41.8174 104.607 41.4951C105.721 41.1729 106.507 40.6699 106.966 39.9863C107.435 39.293 107.669 38.3945 107.669 37.291V27.125H110.481V44H107.669V41.7588C107.259 42.3252 106.741 42.7988 106.116 43.1797C105.491 43.5605 104.656 43.8438 103.611 44.0293C102.566 44.2246 101.199 44.3223 99.5098 44.3223ZM114.393 44V21.5H117.205V34.4932L128.411 27.125H132.674L120.765 35.0498L133.143 44H128.953L117.205 35.3428V44H114.393ZM142.518 44.3223C140.496 44.3223 138.826 44.2148 137.508 44C136.199 43.7949 135.223 43.3359 134.578 42.623C133.943 41.9102 133.626 40.8018 133.626 39.2979C133.626 37.7646 133.924 36.6416 134.52 35.9287C135.125 35.2061 136.077 34.7373 137.376 34.5225C138.685 34.3076 140.398 34.2002 142.518 34.2002C144.236 34.2002 145.677 34.2393 146.839 34.3174C148.001 34.3955 149.041 34.5322 149.959 34.7275C149.939 33.4287 149.852 32.4082 149.695 31.666C149.539 30.9141 149.246 30.3574 148.816 29.9961C148.387 29.6348 147.757 29.4053 146.927 29.3076C146.106 29.2002 145.013 29.1465 143.646 29.1465C142.083 29.1465 140.857 29.1807 139.969 29.249C139.09 29.3174 138.45 29.4395 138.05 29.6152C137.649 29.791 137.396 30.0449 137.288 30.377C137.19 30.709 137.142 31.1387 137.142 31.666H134.329C134.329 30.6113 134.471 29.7617 134.754 29.1172C135.047 28.4727 135.54 27.9844 136.233 27.6523C136.927 27.3203 137.874 27.0957 139.075 26.9785C140.286 26.8613 141.81 26.8027 143.646 26.8027C145.618 26.8027 147.205 26.9297 148.406 27.1836C149.617 27.4375 150.535 27.8965 151.16 28.5605C151.795 29.2148 152.22 30.1328 152.435 31.3145C152.659 32.4961 152.771 34.0195 152.771 35.8848V44H149.959V42.8428C149.627 43.1943 149.168 43.4775 148.582 43.6924C147.996 43.9072 147.215 44.0635 146.238 44.1611C145.271 44.2686 144.031 44.3223 142.518 44.3223ZM142.518 42.0371C144.188 42.0371 145.521 42.0176 146.517 41.9785C147.513 41.9395 148.255 41.832 148.743 41.6562C149.241 41.4805 149.568 41.1973 149.725 40.8066C149.881 40.416 149.959 39.8691 149.959 39.166V36.5732L142.518 36.4854C141.199 36.4658 140.135 36.4854 139.324 36.5439C138.523 36.5928 137.913 36.71 137.493 36.8955C137.073 37.0713 136.79 37.3545 136.644 37.7451C136.507 38.126 136.438 38.6436 136.438 39.2979C136.438 39.9326 136.507 40.4355 136.644 40.8066C136.79 41.1777 137.073 41.4512 137.493 41.627C137.913 41.8027 138.523 41.915 139.324 41.9639C140.135 42.0127 141.199 42.0371 142.518 42.0371Z" fill="black"/>
<path d="M161.5 31.3906V30.6094C161.5 27.9531 161.63 25.7266 161.891 23.9297C162.151 22.1198 162.6 20.6484 163.238 19.5156C163.876 18.3828 164.742 17.5169 165.836 16.918C166.943 16.319 168.329 15.9154 169.996 15.707C171.663 15.4857 173.668 15.375 176.012 15.375H183.883C186.565 15.375 188.824 15.5052 190.66 15.7656C192.509 16.013 193.993 16.5143 195.113 17.2695C196.246 18.0117 197.066 19.112 197.574 20.5703C198.082 22.0156 198.336 23.9362 198.336 26.332H194.586C194.586 24.444 194.417 22.9792 194.078 21.9375C193.74 20.8828 193.167 20.1211 192.359 19.6523C191.565 19.1836 190.478 18.8971 189.098 18.793C187.717 18.6758 185.979 18.6172 183.883 18.6172H176.012C174.15 18.6172 172.581 18.6758 171.305 18.793C170.029 18.8971 168.987 19.151 168.18 19.5547C167.385 19.9453 166.773 20.5703 166.344 21.4297C165.927 22.2891 165.641 23.4609 165.484 24.9453C165.328 26.4297 165.25 28.3177 165.25 30.6094V31.3906C165.25 33.6042 165.328 35.4401 165.484 36.8984C165.641 38.3568 165.927 39.5221 166.344 40.3945C166.773 41.2669 167.385 41.918 168.18 42.3477C168.987 42.7773 170.029 43.0573 171.305 43.1875C172.581 43.3177 174.15 43.3828 176.012 43.3828H183.883C185.979 43.3828 187.717 43.3372 189.098 43.2461C190.478 43.1549 191.565 42.888 192.359 42.4453C193.167 42.0026 193.74 41.2669 194.078 40.2383C194.417 39.1966 194.586 37.7383 194.586 35.8633H198.336C198.336 38.2591 198.082 40.1732 197.574 41.6055C197.066 43.0378 196.246 44.1185 195.113 44.8477C193.993 45.5638 192.509 46.0391 190.66 46.2734C188.824 46.5078 186.565 46.625 183.883 46.625H176.012C173.082 46.625 170.673 46.4232 168.785 46.0195C166.897 45.6289 165.419 44.8997 164.352 43.832C163.297 42.7643 162.555 41.2279 162.125 39.2227C161.708 37.2174 161.5 34.6068 161.5 31.3906ZM215.309 46.4297C212.796 46.4297 210.66 46.2995 208.902 46.0391C207.145 45.7917 205.725 45.2773 204.645 44.4961C203.564 43.7018 202.776 42.5169 202.281 40.9414C201.786 39.3659 201.539 37.263 201.539 34.6328C201.539 32.0807 201.786 30.0365 202.281 28.5C202.776 26.9635 203.564 25.8047 204.645 25.0234C205.725 24.2422 207.145 23.7214 208.902 23.4609C210.66 23.2005 212.796 23.0703 215.309 23.0703C217.835 23.0703 219.97 23.2005 221.715 23.4609C223.473 23.7214 224.892 24.2422 225.973 25.0234C227.053 25.8047 227.841 26.9635 228.336 28.5C228.831 30.0365 229.078 32.0807 229.078 34.6328C229.078 37.263 228.831 39.3659 228.336 40.9414C227.841 42.5169 227.053 43.7018 225.973 44.4961C224.892 45.2773 223.473 45.7917 221.715 46.0391C219.97 46.2995 217.835 46.4297 215.309 46.4297ZM225.328 34.6328C225.328 32.7708 225.23 31.2799 225.035 30.1602C224.853 29.0404 224.443 28.2005 223.805 27.6406C223.167 27.0677 222.171 26.6836 220.816 26.4883C219.475 26.293 217.639 26.1953 215.309 26.1953C212.991 26.1953 211.155 26.293 209.801 26.4883C208.447 26.6836 207.451 27.0677 206.812 27.6406C206.174 28.2005 205.758 29.0404 205.562 30.1602C205.38 31.2799 205.289 32.7708 205.289 34.6328C205.289 36.5599 205.38 38.1029 205.562 39.2617C205.758 40.4206 206.174 41.293 206.812 41.8789C207.451 42.4518 208.447 42.8359 209.801 43.0312C211.155 43.2135 212.991 43.3047 215.309 43.3047C217.639 43.3047 219.475 43.2135 220.816 43.0312C222.171 42.8359 223.167 42.4518 223.805 41.8789C224.443 41.293 224.853 40.4206 225.035 39.2617C225.23 38.1029 225.328 36.5599 225.328 34.6328ZM246.598 46.4297C244.085 46.4297 241.949 46.2995 240.191 46.0391C238.434 45.7917 237.014 45.2773 235.934 44.4961C234.853 43.7018 234.065 42.5169 233.57 40.9414C233.076 39.3659 232.828 37.263 232.828 34.6328C232.828 32.0807 233.076 30.0365 233.57 28.5C234.065 26.9635 234.853 25.8047 235.934 25.0234C237.014 24.2422 238.434 23.7214 240.191 23.4609C241.949 23.2005 244.085 23.0703 246.598 23.0703C249.007 23.0703 251.038 23.2526 252.691 23.6172C254.358 23.9818 255.667 24.7956 256.617 26.0586V16H260.367V46H256.617V43.4219C255.667 44.6979 254.358 45.5182 252.691 45.8828C251.038 46.2474 249.007 46.4297 246.598 46.4297ZM256.617 34.6328C256.617 32.7708 256.487 31.2799 256.227 30.1602C255.966 29.0404 255.484 28.2005 254.781 27.6406C254.078 27.0677 253.069 26.6836 251.754 26.4883C250.439 26.293 248.72 26.1953 246.598 26.1953C244.28 26.1953 242.444 26.293 241.09 26.4883C239.736 26.6836 238.74 27.0677 238.102 27.6406C237.464 28.2005 237.047 29.0404 236.852 30.1602C236.669 31.2799 236.578 32.7708 236.578 34.6328C236.578 36.5599 236.669 38.1029 236.852 39.2617C237.047 40.4206 237.464 41.293 238.102 41.8789C238.74 42.4518 239.736 42.8359 241.09 43.0312C242.444 43.2135 244.28 43.3047 246.598 43.3047C248.72 43.3047 250.439 43.2135 251.754 43.0312C253.069 42.8359 254.078 42.4518 254.781 41.8789C255.484 41.293 255.966 40.4206 256.227 39.2617C256.487 38.1029 256.617 36.5599 256.617 34.6328ZM291.207 39.3203C291.207 41 290.953 42.3216 290.445 43.2852C289.951 44.2487 289.189 44.9518 288.16 45.3945C287.132 45.8372 285.816 46.1172 284.215 46.2344C282.626 46.3646 280.732 46.4297 278.531 46.4297C276.018 46.4297 273.883 46.2995 272.125 46.0391C270.38 45.7917 268.967 45.2773 267.887 44.4961C266.819 43.7018 266.038 42.5169 265.543 40.9414C265.061 39.3659 264.82 37.263 264.82 34.6328C264.82 32.0807 265.055 30.0365 265.523 28.5C266.005 26.9635 266.78 25.8047 267.848 25.0234C268.915 24.2422 270.315 23.7214 272.047 23.4609C273.792 23.2005 275.921 23.0703 278.434 23.0703C281.311 23.0703 283.694 23.2721 285.582 23.6758C287.47 24.0794 288.876 24.8477 289.801 25.9805C290.738 27.1133 291.207 28.7734 291.207 30.9609V35.7852H268.59C268.603 37.4518 268.72 38.7865 268.941 39.7891C269.163 40.7917 269.605 41.5469 270.27 42.0547C270.934 42.5625 271.923 42.901 273.238 43.0703C274.566 43.2266 276.331 43.3047 278.531 43.3047C280.51 43.3047 282.105 43.2656 283.316 43.1875C284.54 43.1094 285.465 42.9401 286.09 42.6797C286.728 42.4062 287.158 42.0026 287.379 41.4688C287.6 40.9349 287.711 40.2188 287.711 39.3203H291.207ZM278.434 26.1953C276.311 26.1953 274.599 26.2734 273.297 26.4297C272.008 26.5859 271.025 26.8919 270.348 27.3477C269.671 27.7904 269.208 28.4544 268.961 29.3398C268.727 30.2253 268.603 31.3906 268.59 32.8359H287.613V30.9609C287.613 30.0234 287.503 29.2487 287.281 28.6367C287.073 28.0117 286.656 27.5234 286.031 27.1719C285.406 26.8073 284.482 26.5534 283.258 26.4102C282.047 26.2669 280.439 26.1953 278.434 26.1953ZM308.785 46.4297C306.051 46.4297 303.85 46.3385 302.184 46.1562C300.53 45.974 299.273 45.6354 298.414 45.1406C297.568 44.6458 296.995 43.9427 296.695 43.0312C296.409 42.1198 296.266 40.9349 296.266 39.4766H299.859C299.859 40.2969 299.918 40.9609 300.035 41.4688C300.152 41.9635 300.484 42.3477 301.031 42.6211C301.578 42.8815 302.464 43.0638 303.688 43.168C304.924 43.2591 306.656 43.3047 308.883 43.3047C311.24 43.3047 313.069 43.2591 314.371 43.168C315.686 43.0638 316.63 42.8815 317.203 42.6211C317.776 42.3477 318.121 41.957 318.238 41.4492C318.368 40.9414 318.434 40.2708 318.434 39.4375C318.434 38.4219 318.342 37.6602 318.16 37.1523C317.978 36.6445 317.548 36.306 316.871 36.1367C316.194 35.9544 315.113 35.8568 313.629 35.8438L304.684 35.7461C302.379 35.7201 300.621 35.5247 299.41 35.1602C298.199 34.7956 297.372 34.1576 296.93 33.2461C296.487 32.3216 296.266 31.013 296.266 29.3203C296.266 27.7448 296.507 26.5273 296.988 25.668C297.483 24.8086 298.251 24.1966 299.293 23.832C300.335 23.4674 301.689 23.2526 303.355 23.1875C305.022 23.1094 307.034 23.0703 309.391 23.0703C312.164 23.0703 314.365 23.1549 315.992 23.3242C317.633 23.4935 318.857 23.8125 319.664 24.2812C320.484 24.75 321.018 25.4336 321.266 26.332C321.526 27.2174 321.656 28.3763 321.656 29.8086H318.062C318.062 28.9622 318.004 28.2982 317.887 27.8164C317.77 27.3216 317.451 26.9635 316.93 26.7422C316.422 26.5078 315.589 26.3581 314.43 26.293C313.284 26.2279 311.669 26.1953 309.586 26.1953C307.216 26.1953 305.374 26.2214 304.059 26.2734C302.743 26.3255 301.793 26.4492 301.207 26.6445C300.621 26.8398 300.263 27.1523 300.133 27.582C300.003 27.9987 299.938 28.5781 299.938 29.3203C299.938 30.0755 299.977 30.6745 300.055 31.1172C300.146 31.5469 300.374 31.8724 300.738 32.0938C301.103 32.3151 301.695 32.4648 302.516 32.543C303.349 32.6081 304.508 32.6471 305.992 32.6602L313.707 32.7383C316.025 32.7643 317.783 32.9596 318.98 33.3242C320.191 33.6758 321.012 34.3333 321.441 35.2969C321.884 36.2474 322.105 37.6276 322.105 39.4375C322.105 41.0651 321.865 42.3477 321.383 43.2852C320.914 44.2227 320.159 44.9193 319.117 45.375C318.076 45.8177 316.702 46.1042 314.996 46.2344C313.303 46.3646 311.233 46.4297 308.785 46.4297Z" fill="#1D4ED8"/>
<path d="M33.41 37.4923L30.7931 40.6814L28.3283 38.0591L26.689 36.3122L33.3143 28.2136L29.1675 23.1436L26.6873 20.113C27.6275 19.0994 28.5522 18.102 29.4906 17.0945L30.7965 15.6848L34.5741 20.31L42 28.2156L33.41 37.4923ZM5.11423 34.4475L0 28.2156C3.4357 24.0048 6.82524 19.857 10.2285 15.6889L11.1002 16.6314L14.3359 20.115L11.8626 23.1375L7.70895 28.2156L13.0232 34.7075L14.3342 36.3102C13.5924 37.1023 12.8642 37.8783 12.1326 38.6542L10.2285 40.6875L5.11423 34.4475ZM26.6258 46.7122L19.8826 9L19.5476 9.07922L14.3701 10.2878L18.7374 34.7034L21.115 48L26.6258 46.7122Z" fill="#1D4ED8"/>
</svg>
